HIERARCHY
ROOT hip
{
  OFFSET 0 0 0
  CHANNELS 6 Xposition Yposition Zposition Zrotation Yrotation Xrotation
  JOINT abdomen
  {
    OFFSET 0 20.6881 -0.73152
    CHANNELS 3 Zrotation Xrotation Yrotation
    JOINT chest
    {
      OFFSET 0 11.7043 -0.48768
      CHANNELS 3 Zrotation Xrotation Yrotation
      JOINT neck
      {
        OFFSET 0 22.1894 -2.19456
        CHANNELS 3 Zrotation Xrotation Yrotation
        JOINT head
        {
          OFFSET -0.24384 7.07133 1.2192
          CHANNELS 3 Zrotation Xrotation Yrotation
          JOINT leftEye
          {
            OFFSET 4.14528 8.04674 8.04672
            CHANNELS 3 Zrotation Xrotation Yrotation
            End Site
            {
              OFFSET 1 0 0
            }
          }
          JOINT rightEye
          {
            OFFSET -3.6576 8.04674 8.04672
            CHANNELS 3 Zrotation Xrotation Yrotation
            End Site
            {
              OFFSET 1 0 0
            }
          }
        }
      }
      JOINT rCollar
      {
        OFFSET -2.68224 19.2634 -4.8768
        CHANNELS 3 Zrotation Xrotation Yrotation
        JOINT rShldr
        {
          OFFSET -8.77824 -1.95073 1.46304
          CHANNELS 3 Zrotation Xrotation Yrotation
          JOINT rForeArm
          {
            OFFSET -28.1742 -1.7115 0.48768
            CHANNELS 3 Zrotation Xrotation Yrotation
            JOINT rHand
            {
              OFFSET -22.5879 0.773209 7.07136
              CHANNELS 3 Zrotation Xrotation Yrotation
              JOINT rThumb1
              {
                OFFSET -1.2192 -0.487915 3.41376
                CHANNELS 3 Zrotation Xrotation Yrotation
                JOINT rThumb2
                {
                  OFFSET -3.37035 -0.52449 3.41376
                  CHANNELS 3 Zrotation Xrotation Yrotation
                  End Site
                  {
                    OFFSET -1.78271 -1.18214 1.43049
                  }
                }
              }
              JOINT rIndex1
              {
                OFFSET -7.75947 0.938293 5.60832
                CHANNELS 3 Zrotation Xrotation Yrotation
                JOINT rIndex2
                {
                  OFFSET -2.54057 -0.884171 1.56538
                  CHANNELS 3 Zrotation Xrotation Yrotation
                  End Site
                  {
                    OFFSET -1.62519 -0.234802 1.16502
                  }
                }
              }
              JOINT rMid1
              {
                OFFSET -8.24714 1.18213 3.41376
                CHANNELS 3 Zrotation Xrotation Yrotation
                JOINT rMid2
                {
                  OFFSET -3.10165 -0.590103 1.0647
                  CHANNELS 3 Zrotation Xrotation Yrotation
                  End Site
                  {
                    OFFSET -2.48547 -0.328903 0.83742
                  }
                }
              }
              JOINT rRing1
              {
                OFFSET -8.82822 0.546677 1.51678
                CHANNELS 3 Zrotation Xrotation Yrotation
                JOINT rRing2
                {
                  OFFSET -2.60934 -0.819778 -0.0198488
                  CHANNELS 3 Zrotation Xrotation Yrotation
                  End Site
                  {
                    OFFSET -2.33842 -0.294052 0.168128
                  }
                }
              }
              JOINT rPinky1
              {
                OFFSET -8.27202 -0.0477905 -0.4584
                CHANNELS 3 Zrotation Xrotation Yrotation
                JOINT rPinky2
                {
                  OFFSET -1.82734 -0.647385 -0.700984
                  CHANNELS 3 Zrotation Xrotation Yrotation
                  End Site
                  {
                    OFFSET -1.69225 -0.51767 -0.607171
                  }
                }
              }
            }
          }
        }
      }
      JOINT lCollar
      {
        OFFSET 2.68224 19.2634 -4.8768
        CHANNELS 3 Zrotation Xrotation Yrotation
        JOINT lShldr
        {
          OFFSET 8.77824 -1.95073 1.46304
          CHANNELS 3 Zrotation Xrotation Yrotation
          JOINT lForeArm
          {
            OFFSET 28.1742 -1.7115 0.48768
            CHANNELS 3 Zrotation Xrotation Yrotation
            JOINT lHand
            {
              OFFSET 22.5879 0.773209 7.07136
              CHANNELS 3 Zrotation Xrotation Yrotation
              JOINT lThumb1
              {
                OFFSET 1.2192 -0.487915 3.41376
                CHANNELS 3 Zrotation Xrotation Yrotation
                JOINT lThumb2
                {
                  OFFSET 3.37035 -0.52449 3.41376
                  CHANNELS 3 Zrotation Xrotation Yrotation
                  End Site
                  {
                    OFFSET 1.78271 -1.18214 1.43049
                  }
                }
              }
              JOINT lIndex1
              {
                OFFSET 7.75947 0.938293 5.60832
                CHANNELS 3 Zrotation Xrotation Yrotation
                JOINT lIndex2
                {
                  OFFSET 2.54057 -0.884171 1.56538
                  CHANNELS 3 Zrotation Xrotation Yrotation
                  End Site
                  {
                    OFFSET 1.62519 -0.234802 1.16502
                  }
                }
              }
              JOINT lMid1
              {
                OFFSET 8.24714 1.18213 3.41376
                CHANNELS 3 Zrotation Xrotation Yrotation
                JOINT lMid2
                {
                  OFFSET 3.10165 -0.590103 1.0647
                  CHANNELS 3 Zrotation Xrotation Yrotation
                  End Site
                  {
                    OFFSET 2.48547 -0.328903 0.83742
                  }
                }
              }
              JOINT lRing1
              {
                OFFSET 8.82822 0.546677 1.51678
                CHANNELS 3 Zrotation Xrotation Yrotation
                JOINT lRing2
                {
                  OFFSET 2.60934 -0.819778 -0.0198488
                  CHANNELS 3 Zrotation Xrotation Yrotation
                  End Site
                  {
                    OFFSET 2.33842 -0.294052 0.168128
                  }
                }
              }
              JOINT lPinky1
              {
                OFFSET 8.27202 -0.0477905 -0.4584
                CHANNELS 3 Zrotation Xrotation Yrotation
                JOINT lPinky2
                {
                  OFFSET 1.82734 -0.647385 -0.700984
                  CHANNELS 3 Zrotation Xrotation Yrotation
                  End Site
                  {
                    OFFSET 1.69225 -0.51767 -0.607171
                  }
                }
              }
            }
          }
        }
      }
    }
  }
  JOINT rButtock
  {
    OFFSET -8.77824 4.35084 1.2192
    CHANNELS 3 Zrotation Xrotation Yrotation
    JOINT rThigh
    {
      OFFSET 0 -1.70687 -2.19456
      CHANNELS 3 Zrotation Xrotation Yrotation
      JOINT rShin
      {
        OFFSET 0 -36.8199 0.73152
        CHANNELS 3 Zrotation Xrotation Yrotation
        JOINT rFoot
        {
          OFFSET 0.73152 -45.1104 -5.12064
          CHANNELS 3 Zrotation Xrotation Yrotation
          End Site
          {
            OFFSET -1.1221 -3.69964 12.103
          }
        }
      }
    }
  }
  JOINT lButtock
  {
    OFFSET 8.77824 4.35084 1.2192
    CHANNELS 3 Zrotation Xrotation Yrotation
    JOINT lThigh
    {
      OFFSET 0 -1.70687 -2.19456
      CHANNELS 3 Zrotation Xrotation Yrotation
      JOINT lShin
      {
        OFFSET 0 -36.8199 0.73152
        CHANNELS 3 Zrotation Xrotation Yrotation
        JOINT lFoot
        {
          OFFSET -0.73152 -45.1104 -5.12064
          CHANNELS 3 Zrotation Xrotation Yrotation
          End Site
          {
            OFFSET 1.1221 -3.69964 12.103
          }
        }
      }
    }
  }
}
MOTION
Frames:	4
Frame Time:	0.03333
-0.05419999899317754 59.611698585147714 -0.008999999863581633 -17.16210174560547 -24.1361026763916 15.19360065460205 11.7746000289917 8.002131462097168 10.538799285888672 -0.7542160153388977 -8.83108139038086 3.0101795196533203 -3.8190202713012695 12.460099220275879 0.1340578943490982 8.759561538696289 -26.450801849365234 2.567770481109619 -0.0 0.0 -0.0 -0.0 0.0 -0.0 1.5309699038026925e-13 3.689489848617694e-13 4.978559882060085e-13 72.26449584960938 40.05399703979492 -11.20669937133789 -22.58880043029785 -16.667503356933594 45.41179656982422 -0.3349040150642395 16.242599487304688 2.346590042114258 -1.3839900336876099e-09 1.9627499625585187e-09 -2.901490159246123e-10 -2.39424013948053e-09 3.3839997470863636e-09 -4.897969807515778e-10 -1.3839900336876099e-09 1.9627599545657404e-09 -2.9016797298275776e-10 7.730909824371338 5.474879741668701 0.4173140823841095 -1.3839900336876099e-09 1.9627599545657404e-09 -2.9015198577120316e-10 2.9055399894714355 0.9651829600334167 0.10290199518203735 -1.3839800416803882e-09 1.9627599545657404e-09 -2.9015198577120316e-10 10.27859878540039 0.73180091381073 0.025912316516041756 -1.3839900336876099e-09 1.9627599545657404e-09 -2.901490159246123e-10 2.221669912338257 -0.733487069606781 -0.208919957280159 1.5304199422506992e-13 3.689399859837378e-13 4.976569286871402e-13 -75.51020050048828 18.50080108642578 -3.6005003452301025 11.700200080871582 -5.240589618682861 -21.031099319458008 0.3881640136241913 17.439599990844727 -2.530410051345825 -3.935569647950388e-09 -1.5886100213080567e-09 1.393819948347641e-09 -6.776329719571095e-09 -2.6852899903673233e-09 2.468179882697541e-09 -3.935569647950388e-09 -1.5885999182785326e-09 1.3938299403548626e-09 -7.730909824371338 5.474879741668701 -0.4173140823841095 -3.935569647950388e-09 -1.5886199022929759e-09 1.393819948347641e-09 -2.9055399894714355 0.9651829600334167 -0.10290199518203735 -3.935580306091424e-09 -1.5886100213080567e-09 1.3938299403548626e-09 -10.27859878540039 0.73180091381073 -0.025912316516041756 -3.935569647950388e-09 -1.5886100213080567e-09 1.3938299403548626e-09 -2.221669912338257 -0.733487069606781 0.208919957280159 -2.0321699480147914e-16 0.0 -3.8825099822884138e-19 0.784497082233429 4.5553998947143555 -9.194881439208984 -0.02700049802660942 34.395103454589844 1.9157198667526245 -11.016400337219238 -14.305900573730469 -35.02490234375 2.0321699480147914e-16 0.0 3.8825099822884138e-19 63.99109649658203 -61.97340774536133 51.29130172729492 2.1890997886657715 70.24669647216797 -2.3350298404693604 -0.6109240055084229 -3.443260431289673 -5.135590553283691
-0.18139999928850017 59.77220120045384 0.015999999942759198 -16.951499938964844 -24.01849937438965 14.857501029968262 11.80939769744873 8.057231903076172 10.501297950744629 -0.7232399582862854 -9.019429206848145 3.0059096813201904 -3.7897799015045166 12.627099990844727 0.09108435362577438 8.73543930053711 -26.698701858520508 2.483499765396118 -0.0 0.0 -0.0 -0.0 0.0 -0.0 2.5618098137628054e-13 2.7507100872244117e-13 -4.5223499017853566e-14 72.46310424804688 39.44130325317383 -11.734700202941895 -22.10719871520996 -15.919901847839355 44.0778923034668 -0.3891580104827881 17.490398406982422 2.537830352783203 -1.507989955129574e-09 2.501610030236634e-09 -8.322020295103982e-10 -2.615379912640492e-09 4.317689761279553e-09 -1.4219599941966976e-09 -1.5079799631223523e-09 2.5016198001992507e-09 -8.322220135248415e-10 7.730909824371338 5.474879741668701 0.4173140823841095 -1.507989955129574e-09 2.5016198001992507e-09 -8.322049716014135e-10 2.9055399894714355 0.9651829600334167 0.10290199518203735 -1.5079799631223523e-09 2.5016198001992507e-09 -8.322039724006913e-10 10.27859878540039 0.73180091381073 0.025912316516041756 -1.507989955129574e-09 2.5016198001992507e-09 -8.322009192873736e-10 2.221669912338257 -0.733487069606781 -0.208919957280159 2.5612498233407166e-13 2.750659942873934e-13 -4.542230103870594e-14 -75.54299926757812 19.245399475097656 -3.2123301029205322 12.052497863769531 -5.486830234527588 -21.708999633789062 0.32343998551368713 16.007301330566406 -2.310299873352051 -2.5978998952069787e-09 -2.5016000382294123e-09 -9.518189569845958e-10 -4.497989980478678e-09 -4.299220091041889e-09 -1.6044500172895937e-09 -2.5978998952069787e-09 -2.5016000382294123e-09 -9.518149601817072e-10 -7.730909824371338 5.474879741668701 -0.4173140823841095 -2.5978998952069787e-09 -2.501610030236634e-09 -9.518189569845958e-10 -2.9055399894714355 0.9651829600334167 -0.10290199518203735 -2.5979101092588053e-09 -2.501610030236634e-09 -9.518149601817072e-10 -10.27859878540039 0.73180091381073 -0.025912316516041756 -2.5978998952069787e-09 -2.501610030236634e-09 -9.518159593824294e-10 -2.221669912338257 -0.733487069606781 0.208919957280159 -2.0321699480147914e-16 0.0 -3.8825099822884138e-19 1.0057199001312256 5.082800388336182 -9.389979362487793 -0.019679302349686623 33.66170120239258 1.8863301277160645 -10.91559886932373 -14.264198303222656 -34.87080001831055 2.0321699480147914e-16 0.0 3.8825099822884138e-19 63.771202087402344 -61.660911560058594 51.3765983581543 2.123270273208618 69.81179809570312 -2.2647502422332764 -0.6167010068893433 -3.2235898971557617 -5.459500789642334
-0.30499999630333685 59.882802453683865 0.05299999845552444 -17.32809829711914 -23.768402099609375 14.92289924621582 12.102299690246582 8.161958694458008 10.47299861907959 -0.7627219557762146 -9.180569648742676 3.0053396224975586 -3.7590503692626953 12.789100646972656 0.06480801850557327 8.715620994567871 -26.860700607299805 2.426690101623535 -0.0 0.0 -0.0 -0.0 0.0 -0.0 2.3261199823959577e-13 1.3517399005680275e-14 -5.39004984308894e-13 72.5896987915039 38.98250198364258 -12.100296974182129 -21.63490104675293 -15.218499183654785 42.81389617919922 -0.45414993166923523 18.801599502563477 2.7425601482391357 -8.515139704456942e-10 1.7905998905831666e-09 -1.2048300135347745e-09 -1.4873599019082917e-09 3.0977298504097917e-09 -2.0684500778855863e-09 -8.515059213287657e-10 1.7905998905831666e-09 -1.2048498865269153e-09 7.730909824371338 5.474879741668701 0.4173140823841095 -8.515159688471385e-10 1.7905998905831666e-09 -1.2048300135347745e-09 2.9055399894714355 0.9651829600334167 0.10290199518203735 -8.515070315517903e-10 1.7905998905831666e-09 -1.2048300135347745e-09 10.27859878540039 0.73180091381073 0.025912316516041756 -8.515169680478607e-10 1.7905998905831666e-09 -1.2048199105052504e-09 2.221669912338257 -0.733487069606781 -0.208919957280159 2.3255898075336123e-13 1.3517399005680275e-14 -5.392030138356985e-13 -75.44129943847656 20.19029998779297 -2.944049835205078 12.380799293518066 -5.719249725341797 -22.34929847717285 0.27353399991989136 14.724899291992188 -2.116719961166382 -2.1107100789397037e-10 -2.446439939518541e-09 -2.9667399648047876e-09 -4.0280498381228824e-10 -4.251239804631268e-09 -5.123450108612815e-09 -2.1107297853983908e-10 -2.4464501535703675e-09 -2.966729972797566e-09 -7.730909824371338 5.474879741668701 -0.4173140823841095 -2.1107199321690473e-10 -2.446439939518541e-09 -2.966729972797566e-09 -2.9055399894714355 0.9651829600334167 -0.10290199518203735 -2.1108000070046984e-10 -2.4464501535703675e-09 -2.966729972797566e-09 -10.27859878540039 0.73180091381073 -0.025912316516041756 -2.1106899561473824e-10 -2.4464501535703675e-09 -2.9667399648047876e-09 -2.221669912338257 -0.733487069606781 0.208919957280159 -2.0321699480147914e-16 0.0 -3.8825099822884138e-19 1.3751401901245117 5.670049667358398 -9.626510620117188 -0.011593597941100597 32.939395904541016 1.8633302450180054 -10.796700477600098 -14.25090217590332 -34.65840148925781 2.0321699480147914e-16 0.0 3.8825099822884138e-19 63.98689651489258 -61.21339416503906 51.801300048828125 2.0841500759124756 69.54630279541016 -2.2237298488616943 -0.6168158650398254 -3.2461395263671875 -5.661660194396973
-0.39439999550408994 59.968698912685944 0.10699999763701423 -17.86009979248047 -23.62830352783203 15.197999954223633 12.914898872375488 7.915579319000244 10.497498512268066 -0.9853400588035583 -9.074379920959473 3.004430055618286 -3.6954400539398193 12.779799461364746 0.03983686864376068 8.659570693969727 -26.80840301513672 2.35606050491333 -0.0 0.0 -0.0 -0.0 0.0 -0.0 2.0397401758083522e-13 -5.0837399611161627e-14 -5.147899657552066e-14 72.60330200195312 38.59370422363281 -12.224699020385742 -21.19940185546875 -14.598896980285645 41.6797981262207 -0.5017099976539612 19.711997985839844 2.8863399028778076 -1.0444599629622076e-09 2.1945398831491048e-09 -1.6579699835261863e-09 -1.8304598947693762e-09 3.798349634820397e-09 -2.8448197131325514e-09 -1.044449970954986e-09 2.1945398831491048e-09 -1.657989856518327e-09 7.730909824371338 5.474879741668701 0.4173140823841095 -1.0444599629622076e-09 2.1945398831491048e-09 -1.657979975533408e-09 2.9055399894714355 0.9651829600334167 0.10290199518203735 -1.0444599629622076e-09 2.1945398831491048e-09 -1.6579699835261863e-09 10.27859878540039 0.73180091381073 0.025912316516041756 -1.0444599629622076e-09 2.1945398831491048e-09 -1.6579699835261863e-09 2.221669912338257 -0.733487069606781 -0.208919957280159 2.0397000603279702e-13 -5.084069965152413e-14 -5.168710240626567e-14 -75.20489501953125 20.95800018310547 -2.9492602348327637 12.567798614501953 -5.8544206619262695 -22.715200424194336 0.25251495838165283 14.14210033416748 -2.0295400619506836 -1.7687499243024263e-09 -3.151350069785508e-09 -2.6559996424424526e-09 -3.087750055641436e-09 -5.447850170980928e-09 -4.5666102010955e-09 -1.7687499243024263e-09 -3.151350069785508e-09 -2.6559996424424526e-09 -7.730909824371338 5.474879741668701 -0.4173140823841095 -1.7687499243024263e-09 -3.151350069785508e-09 -2.6559996424424526e-09 -2.9055399894714355 0.9651829600334167 -0.10290199518203735 -1.7687499243024263e-09 -3.1513400777782863e-09 -2.6559996424424526e-09 -10.27859878540039 0.73180091381073 -0.025912316516041756 -1.7687400433175071e-09 -3.1513400777782863e-09 -2.656009856494279e-09 -2.221669912338257 -0.733487069606781 0.208919957280159 -2.0321699480147914e-16 0.0 -3.8825099822884138e-19 1.9508397579193115 6.001830101013184 -9.911518096923828 -0.004439530428498983 32.33209991455078 1.845420241355896 -10.584600448608398 -14.24160099029541 -34.23800277709961 2.0321699480147914e-16 0.0 3.8825099822884138e-19 65.18160247802734 -60.837791442871094 52.88019561767578 2.0842697620391846 69.54511260986328 -2.224250078201294 -0.6421999931335449 -3.2441701889038086 -6.012389659881592
